<?xml version="1.0" encoding="UTF-8" standalone="no"?>
<!-- Created with Inkscape (http://www.inkscape.org/) -->

<svg
   width="780"
   height="646"
   viewBox="0 0 206.375 170.92083"
   version="1.1"
   id="svg1"
   xml:space="preserve"
   inkscape:version="1.3 (0e150ed, 2023-07-21)"
   sodipodi:docname="Logo CYKLang dark.svg"
   xmlns:inkscape="http://www.inkscape.org/namespaces/inkscape"
   xmlns:sodipodi="http://sodipodi.sourceforge.net/DTD/sodipodi-0.dtd"
   xmlns:xlink="http://www.w3.org/1999/xlink"
   xmlns="http://www.w3.org/2000/svg"
   xmlns:svg="http://www.w3.org/2000/svg"><sodipodi:namedview
     id="namedview1"
     pagecolor="#ffffff"
     bordercolor="#000000"
     borderopacity="0.25"
     inkscape:showpageshadow="2"
     inkscape:pageopacity="0.0"
     inkscape:pagecheckerboard="0"
     inkscape:deskcolor="#d1d1d1"
     inkscape:document-units="mm"
     inkscape:zoom="0.92737795"
     inkscape:cx="404.36588"
     inkscape:cy="556.9466"
     inkscape:window-width="1536"
     inkscape:window-height="1264"
     inkscape:window-x="2669"
     inkscape:window-y="60"
     inkscape:window-maximized="0"
     inkscape:current-layer="layer1" /><defs
     id="defs1"><inkscape:path-effect
       effect="powerclip"
       id="path-effect5"
       is_visible="true"
       lpeversion="1"
       inverse="true"
       flatten="false"
       hide_clip="false"
       message="Utilise la règle de remplissage « fill-rule: evenodd » de la boîte de dialogue &lt;b&gt;Fond et contour&lt;/b&gt; en l'absence de résultat de mise à plat après une conversion en chemin." /><pattern
       inkscape:collect="always"
       xlink:href="#pattern6-7"
       preserveAspectRatio="xMidYMid"
       id="pattern3"
       patternTransform="translate(190,350)" /><pattern
       patternUnits="userSpaceOnUse"
       width="29"
       height="20"
       patternTransform="translate(190,350)"
       preserveAspectRatio="xMidYMid"
       style="fill:#000000"
       id="pattern6-7"
       inkscape:label=""
       inkscape:collect="always"
       inkscape:isstock="true"><path
         style="fill:none;stroke:#000000;stroke-width:10;stroke-linecap:butt;stroke-dasharray:none;paint-order:stroke markers fill;stop-color:#000000"
         d="M 0,5 C 19,5 10,15 29,15"
         id="path4-2"
         sodipodi:nodetypes="cc" /></pattern><linearGradient
       id="swatch3"
       inkscape:swatch="solid"><stop
         style="stop-color:#000000;stop-opacity:1;"
         offset="0"
         id="stop3" /></linearGradient><clipPath
       clipPathUnits="userSpaceOnUse"
       id="clipPath4"><rect
         style="display:none;opacity:0.93531;fill:#fefefe;fill-opacity:0.827451;stroke:#000000;stroke-width:3.14801;stroke-opacity:1"
         id="rect5"
         width="211.97983"
         height="34.236309"
         x="-0.28530261"
         y="132.09511"
         d="M -0.28530261,132.09511 H 211.69453 v 34.23631 H -0.28530261 Z" /><path
         id="lpe_path-effect5"
         style="opacity:0.93531;fill:#fefefe;fill-opacity:0.827451;stroke:#000000;stroke-width:3.14801;stroke-opacity:1"
         class="powerclip"
         d="M -5.8419805,37.524014 H 215.82469 V 259.19068 H -5.8419805 Z m 5.55667789,94.571096 v 34.23631 H 211.69453 v -34.23631 z" /></clipPath></defs><g
     inkscape:label="Calque 1"
     inkscape:groupmode="layer"
     id="layer1"><path
       fill="#231f20"
       d="m 104.99135,42.524014 c -58.449763,0 -105.83333053,47.383568 -105.83333053,105.833326 0,58.44977 47.38356753,105.83334 105.83333053,105.83334 58.44977,0 105.83334,-47.38357 105.83334,-105.83334 0,-58.449758 -47.38357,-105.833326 -105.83334,-105.833326 z M 164.43,145.05005 c -0.45641,-18.4613 -4.67651,-35.97671 -11.94925,-51.815333 8.77094,-3.380052 17.09539,-7.662995 24.8543,-12.746302 15.95438,16.999479 25.97547,39.608125 26.79568,64.561635 z m -55.03003,102.4136 c -0.3638,0.0165 -0.73422,0.0165 -1.10133,0.0298 v -39.48906 c 10.99344,0.28773 21.65284,1.92153 31.76654,4.86172 -8.00695,13.34823 -18.44146,25.06596 -30.66521,34.59758 z m 37.09459,-32.49415 c 7.55054,2.64915 14.75713,6.00935 21.57346,9.98141 -13.1994,10.88099 -29.26622,18.39846 -46.89078,21.29234 9.94833,-9.04875 18.48776,-19.5957 25.31732,-31.27375 z m -76.580343,-2.10343 c 10.117005,-2.94349 20.776406,-4.57399 31.769843,-4.86172 v 39.48575 c -0.36711,-0.0132 -0.73752,-0.0132 -1.10133,-0.0298 C 88.355675,237.93199 77.924477,226.21426 69.914217,212.86603 Z M 88.80216,246.23995 C 71.177602,243.34937 55.110779,235.8319 41.911378,224.9476 c 6.819636,-3.96875 14.022917,-7.33226 21.573464,-9.9781 6.829557,11.67805 15.372292,22.225 25.317318,31.27045 z M 5.8552851,145.05005 C 6.6754935,120.09654 16.693279,97.487894 32.650962,80.488415 c 7.758906,5.08 16.080052,9.362943 24.854297,12.746302 C 50.229217,109.07334 46.009113,126.58875 45.552706,145.05005 Z M 143.25672,89.474326 c -11.06289,3.535495 -22.80047,5.523178 -34.95808,5.840678 V 49.221279 c 0.36711,0.01323 0.73753,0.01323 1.10133,0.02977 13.91709,10.847917 25.51245,24.536797 33.85675,40.223281 z M 121.18055,50.474743 c 19.65854,3.227917 37.36578,12.22375 51.33247,25.208177 -7.19667,4.600443 -14.86958,8.49974 -22.96583,11.572214 C 142.29099,73.367816 132.67008,60.91917 121.18055,50.474743 Z M 101.68406,49.221279 V 95.315004 C 89.523149,94.997504 77.785571,93.013129 66.725988,89.474326 75.070285,73.787842 86.665649,60.098962 100.58273,49.251045 c 0.36381,-0.01654 0.73422,-0.01654 1.10133,-0.02977 z M 60.438826,87.255134 C 52.342576,84.18266 44.666352,80.283363 37.472993,75.68292 51.439686,62.698493 69.143618,53.70266 88.805467,50.474743 77.312628,60.91917 67.691717,73.367816 60.438826,87.255134 Z m 3.317214,8.215312 c 11.97901,3.93237 24.712083,6.194554 37.92802,6.521974 v 43.05763 H 52.177212 c 0.459713,-17.68078 4.537604,-34.44874 11.578828,-49.579604 z m 37.92802,56.194184 v 49.72844 c -12.184062,0.30427 -23.961327,2.19935 -35.1069,5.58602 C 57.802915,190.39963 52.696456,171.6043 52.177212,151.66463 Z m 6.61458,49.72844 v -49.72844 h 49.50685 c -0.51593,19.93967 -5.6257,38.735 -14.39994,55.31777 -11.14558,-3.38998 -22.92284,-5.28506 -35.10691,-5.58933 z m 0,-56.34302 v -43.06093 c 13.21594,-0.32742 25.94902,-2.586304 37.92803,-6.521981 7.04122,15.130861 11.11911,31.902131 11.57882,49.579601 H 108.29864 Z M 5.8552851,151.66463 H 45.552706 c 0.509323,20.6805 5.754688,40.17037 14.707527,57.44435 -8.255,2.97326 -16.109818,6.76011 -23.511537,11.23157 C 18.429608,202.97065 6.7449466,178.69182 5.8552851,151.66463 Z M 173.23401,220.34385 c -7.40172,-4.47476 -15.25654,-8.2583 -23.51154,-11.23156 8.95284,-17.27729 14.19821,-36.76385 14.70753,-57.44435 h 39.69742 c -0.88966,27.02388 -12.57432,51.30271 -30.89341,68.67591 z"
       id="path1"
       style="fill:#ef3516;fill-opacity:0.82745099;stroke:none;stroke-width:3.30729;stroke-opacity:1"
       clip-path="url(#clipPath4)"
       inkscape:path-effect="#path-effect5"
       inkscape:original-d="m 104.99135,42.524014 c -58.449763,0 -105.83333053,47.383568 -105.83333053,105.833326 0,58.44977 47.38356753,105.83334 105.83333053,105.83334 58.44977,0 105.83334,-47.38357 105.83334,-105.83334 0,-58.449758 -47.38357,-105.833326 -105.83334,-105.833326 z M 164.43,145.05005 c -0.45641,-18.4613 -4.67651,-35.97671 -11.94925,-51.815333 8.77094,-3.380052 17.09539,-7.662995 24.8543,-12.746302 15.95438,16.999479 25.97547,39.608125 26.79568,64.561635 z m -55.03003,102.4136 c -0.3638,0.0165 -0.73422,0.0165 -1.10133,0.0298 v -39.48906 c 10.99344,0.28773 21.65284,1.92153 31.76654,4.86172 -8.00695,13.34823 -18.44146,25.06596 -30.66521,34.59758 z m 37.09459,-32.49415 c 7.55054,2.64915 14.75713,6.00935 21.57346,9.98141 -13.1994,10.88099 -29.26622,18.39846 -46.89078,21.29234 9.94833,-9.04875 18.48776,-19.5957 25.31732,-31.27375 z m -76.580343,-2.10343 c 10.117005,-2.94349 20.776406,-4.57399 31.769843,-4.86172 v 39.48575 c -0.36711,-0.0132 -0.73752,-0.0132 -1.10133,-0.0298 C 88.355675,237.93199 77.924477,226.21426 69.914217,212.86603 Z M 88.80216,246.23995 C 71.177602,243.34937 55.110779,235.8319 41.911378,224.9476 c 6.819636,-3.96875 14.022917,-7.33226 21.573464,-9.9781 6.829557,11.67805 15.372292,22.225 25.317318,31.27045 z M 5.8552851,145.05005 C 6.6754935,120.09654 16.693279,97.487894 32.650962,80.488415 c 7.758906,5.08 16.080052,9.362943 24.854297,12.746302 C 50.229217,109.07334 46.009113,126.58875 45.552706,145.05005 Z M 143.25672,89.474326 c -11.06289,3.535495 -22.80047,5.523178 -34.95808,5.840678 V 49.221279 c 0.36711,0.01323 0.73753,0.01323 1.10133,0.02977 13.91709,10.847917 25.51245,24.536797 33.85675,40.223281 z M 121.18055,50.474743 c 19.65854,3.227917 37.36578,12.22375 51.33247,25.208177 -7.19667,4.600443 -14.86958,8.49974 -22.96583,11.572214 C 142.29099,73.367816 132.67008,60.91917 121.18055,50.474743 Z M 101.68406,49.221279 V 95.315004 C 89.523149,94.997504 77.785571,93.013129 66.725988,89.474326 75.070285,73.787842 86.665649,60.098962 100.58273,49.251045 c 0.36381,-0.01654 0.73422,-0.01654 1.10133,-0.02977 z M 60.438826,87.255134 C 52.342576,84.18266 44.666352,80.283363 37.472993,75.68292 51.439686,62.698493 69.143618,53.70266 88.805467,50.474743 77.312628,60.91917 67.691717,73.367816 60.438826,87.255134 Z m 3.317214,8.215312 c 11.97901,3.93237 24.712083,6.194554 37.92802,6.521974 v 43.05763 H 52.177212 c 0.459713,-17.68078 4.537604,-34.44874 11.578828,-49.579604 z m 37.92802,56.194184 v 49.72844 c -12.184062,0.30427 -23.961327,2.19935 -35.1069,5.58602 C 57.802915,190.39963 52.696456,171.6043 52.177212,151.66463 Z m 6.61458,49.72844 v -49.72844 h 49.50685 c -0.51593,19.93967 -5.6257,38.735 -14.39994,55.31777 -11.14558,-3.38998 -22.92284,-5.28506 -35.10691,-5.58933 z m 0,-56.34302 v -43.06093 c 13.21594,-0.32742 25.94902,-2.586304 37.92803,-6.521981 7.04122,15.130861 11.11911,31.902131 11.57882,49.579601 H 108.29864 Z M 5.8552851,151.66463 H 45.552706 c 0.509323,20.6805 5.754688,40.17037 14.707527,57.44435 -8.255,2.97326 -16.109818,6.76011 -23.511537,11.23157 C 18.429608,202.97065 6.7449466,178.69182 5.8552851,151.66463 Z M 173.23401,220.34385 c -7.40172,-4.47476 -15.25654,-8.2583 -23.51154,-11.23156 8.95284,-17.27729 14.19821,-36.76385 14.70753,-57.44435 h 39.69742 c -0.88966,27.02388 -12.57432,51.30271 -30.89341,68.67591 z"
       transform="matrix(0.7250312,0,0,0.69942136,29.439952,-18.316173)" /></g><g
     inkscape:groupmode="layer"
     id="layer2"
     inkscape:label="Calque 2"
     transform="matrix(8.9391997,0,0,15.831799,-352.18394,-1948.6938)"
     style="opacity:0.991914"><text
       xml:space="preserve"
       style="font-style:normal;font-variant:normal;font-weight:bold;font-stretch:normal;font-size:3.175px;font-family:Arial;-inkscape-font-specification:'Arial, Bold';font-variant-ligatures:normal;font-variant-caps:normal;font-variant-numeric:normal;font-variant-east-asian:normal;white-space:pre;inline-size:31.8771;display:inline;opacity:0.93531;fill:#f9f9f9;fill-opacity:0.827451;stroke:#000000;stroke-width:0.0221163;stroke-dasharray:none;stroke-opacity:1"
       x="39.94236"
       y="133.23631"
       id="text6"
       transform="matrix(0.74420711,0,0,0.46635282,9.5782044,66.913789)"><tspan
         x="39.94236"
         y="133.23631"
         id="tspan2">C Y K L A N G . N E T</tspan></text></g></svg>
